<svg id="Color" enable-background="new 0 0 64 64" height="512" viewBox="0 0 64 64" width="512" xmlns="http://www.w3.org/2000/svg"><circle cx="32" cy="33" fill="#4ac3ed" r="5"/><path d="m32 49 3 12h5l-3-13v-6h7c2.209 0 4-1.791 4-4v-8h-4v8h-24v-8h-4v8c0 2.209 1.791 4 4 4h7v6l-3 13h5z" fill="#4ac3ed"/><path d="m43 14c0 6.075-4.925 11-11 11s-11-4.925-11-11 4.925-11 11-11 11 4.925 11 11zm-11-5c-2.761 0-5 2.239-5 5s2.239 5 5 5 5-2.239 5-5-2.239-5-5-5z" fill="#e89d43"/><g fill="#0d1030"><path d="m38 47.886v-4.886h6c2.757 0 5-2.243 5-5v-8c0-.552-.448-1-1-1h-4c-.552 0-1 .448-1 1v7h-6.54c.954-1.063 1.54-2.462 1.54-4 0-3.309-2.691-6-6-6s-6 2.691-6 6c0 1.538.586 2.937 1.54 4h-6.54v-7c0-.552-.448-1-1-1h-4c-.552 0-1 .448-1 1v8c0 2.757 2.243 5 5 5h6v4.886l-2.975 12.889c-.068.297.002.609.192.848.19.238.478.377.783.377h5c.459 0 .859-.312.97-.757l2.03-8.12 2.03 8.12c.111.445.511.757.97.757h5c.305 0 .593-.139.783-.377.189-.238.26-.55.192-.848zm-10-14.886c0-2.206 1.794-4 4-4s4 1.794 4 4-1.794 4-4 4-4-1.794-4-4zm7.781 27-2.811-11.243c-.111-.445-.511-.757-.97-.757s-.859.312-.97.757l-2.811 11.243h-2.962l2.718-11.775c.016-.074.025-.149.025-.225v-6c0-.552-.448-1-1-1h-7c-1.654 0-3-1.346-3-3v-7h2v7c0 .552.448 1 1 1h24c.552 0 1-.448 1-1v-7h2v7c0 1.654-1.346 3-3 3h-7c-.552 0-1 .448-1 1v6c0 .076.009.151.025.225l2.718 11.775z"/><path d="m44 6c0-2.206-1.794-4-4-4-1.095 0-2.103.433-2.839 1.183-1.566-.75-3.312-1.183-5.161-1.183s-3.595.433-5.161 1.183c-.736-.75-1.744-1.183-2.839-1.183-2.206 0-4 1.794-4 4 0 1.095.433 2.103 1.183 2.839-.75 1.566-1.183 3.312-1.183 5.161s.433 3.595 1.183 5.161c-.75.736-1.183 1.744-1.183 2.839 0 2.206 1.794 4 4 4 1.095 0 2.103-.433 2.839-1.183 1.566.75 3.312 1.183 5.161 1.183s3.595-.433 5.161-1.183c.736.75 1.744 1.183 2.839 1.183 2.206 0 4-1.794 4-4 0-1.095-.433-2.103-1.183-2.839.75-1.566 1.183-3.312 1.183-5.161s-.433-3.595-1.183-5.161c.75-.736 1.183-1.744 1.183-2.839zm-2 8c0 2.398-.85 4.6-2.262 6.324l-2.853-2.853c.699-.981 1.115-2.177 1.115-3.471s-.416-2.49-1.115-3.471l2.853-2.853c1.412 1.724 2.262 3.926 2.262 6.324zm-17.738 6.324c-1.412-1.724-2.262-3.926-2.262-6.324s.85-4.6 2.262-6.324l2.853 2.853c-.699.981-1.115 2.177-1.115 3.471s.416 2.49 1.115 3.471zm3.738-6.324c0-2.206 1.794-4 4-4s4 1.794 4 4-1.794 4-4 4-4-1.794-4-4zm10.324-7.738-2.853 2.853c-.981-.699-2.177-1.115-3.471-1.115s-2.49.416-3.471 1.115l-2.853-2.853c1.724-1.412 3.926-2.262 6.324-2.262s4.6.85 6.324 2.262zm-16.324-.262c0-1.103.897-2 2-2 .364 0 .707.097 1.005.269-1.053.759-1.977 1.683-2.736 2.736-.172-.298-.269-.641-.269-1.005zm2 18c-1.103 0-2-.897-2-2 0-.364.097-.707.269-1.005.759 1.053 1.683 1.977 2.736 2.736-.298.172-.641.269-1.005.269zm1.676-2.262 2.853-2.853c.981.699 2.177 1.115 3.471 1.115s2.49-.416 3.471-1.115l2.853 2.853c-1.724 1.412-3.926 2.262-6.324 2.262s-4.6-.85-6.324-2.262zm16.324.262c0 1.103-.897 2-2 2-.364 0-.707-.097-1.005-.269 1.053-.759 1.977-1.683 2.736-2.736.172.298.269.641.269 1.005zm-3.005-17.731c.298-.172.641-.269 1.005-.269 1.103 0 2 .897 2 2 0 .364-.097.707-.269 1.005-.76-1.053-1.683-1.976-2.736-2.736z"/><path d="m11.26 39.355-1.885.669c.221.623.471 1.244.745 1.849l1.822-.823c-.25-.554-.48-1.124-.682-1.695z"/><path d="m11.517 44.513c.345.564.719 1.121 1.11 1.654l1.613-1.183c-.359-.489-.701-.999-1.017-1.516z"/><path d="m10.192 34.924-1.982.264c.087.657.203 1.318.344 1.963l1.954-.428c-.129-.591-.236-1.196-.316-1.799z"/><path d="m14.538 48.462c.455.482.934.95 1.425 1.391l1.336-1.488c-.45-.404-.889-.833-1.306-1.275z"/><path d="m18.303 51.707c.542.377 1.107.736 1.679 1.068l1.004-1.729c-.525-.305-1.044-.635-1.541-.98z"/><path d="m15.125 17.885-1.533-1.284c-.424.507-.833 1.038-1.214 1.578l1.634 1.153c.35-.496.724-.982 1.113-1.447z"/><path d="m12.576 21.663-1.765-.942c-.312.584-.603 1.188-.864 1.795l1.837.791c.239-.556.506-1.109.792-1.644z"/><path d="m17.01 15.898c.445-.414.911-.814 1.386-1.188l-1.237-1.571c-.519.408-1.027.844-1.512 1.296z"/><path d="m8.468 27.262 1.961.393c.119-.593.264-1.189.433-1.771l-1.922-.557c-.184.636-.343 1.287-.472 1.935z"/><path d="m10 32c0-.549.02-1.093.06-1.633l-1.994-.146c-.044.587-.066 1.18-.066 1.779l.001.209 2-.015z"/><path d="m48.89 17.903c.389.464.763.952 1.112 1.448l1.636-1.151c-.381-.542-.79-1.073-1.213-1.58z"/><path d="m53.942 30.396c.038.529.058 1.064.058 1.604l-.001.218 2 .025.001-.243c0-.588-.021-1.171-.063-1.749z"/><path d="m45.622 14.725c.475.375.941.775 1.385 1.189l1.365-1.462c-.484-.452-.993-.889-1.511-1.298z"/><path d="m55.538 27.292c-.13-.652-.288-1.304-.471-1.938l-1.922.554c.167.58.312 1.176.431 1.774z"/><path d="m53.486 36.75 1.953.43c.143-.649.259-1.309.347-1.961l-1.982-.266c-.081.598-.188 1.203-.318 1.797z"/><path d="m46.683 48.381 1.335 1.489c.491-.44.971-.908 1.426-1.389l-1.453-1.374c-.417.441-.857.87-1.308 1.274z"/><path d="m54.063 22.541c-.26-.605-.55-1.21-.862-1.797l-1.766.939c.286.538.552 1.092.79 1.647z"/><path d="m42.994 51.058 1.001 1.731c.574-.332 1.139-.691 1.682-1.067l-1.142-1.643c-.497.346-1.015.675-1.541.979z"/><path d="m52.048 41.072 1.821.826c.274-.604.525-1.226.746-1.847l-1.884-.671c-.202.569-.432 1.139-.683 1.692z"/><path d="m49.746 45.004 1.612 1.184c.393-.535.767-1.091 1.111-1.652l-1.705-1.046c-.316.514-.659 1.024-1.018 1.514z"/></g></svg>