<svg id="FilledOutline" enable-background="new 0 0 64 64" height="512" viewBox="0 0 64 64" width="512" xmlns="http://www.w3.org/2000/svg"><path d="m15 26h46v5h-46z" fill="#eae8e5"/><path d="m15 31h46v5h-46z" fill="#dbd8d5"/><path d="m15 36h46v5h-46z" fill="#eae8e5"/><path d="m15 46h46v5h-46z" fill="#eae8e5"/><path d="m15 41h46v5h-46z" fill="#dbd8d5"/><path d="m3 56h12v5h-12z" fill="#e89d43"/><path d="m3 51h12v5h-12z" fill="#e08831"/><path d="m3 46h12v5h-12z" fill="#e89d43"/><path d="m3 41h12v5h-12z" fill="#e08831"/><path d="m3 36h12v5h-12z" fill="#e89d43"/><path d="m3 31h12v5h-12z" fill="#e08831"/><path d="m3 26h12v5h-12z" fill="#e89d43"/><path d="m15 56h12v5h-12z" fill="#e08831"/><path d="m15 51h12v5h-12z" fill="#e89d43"/><path d="m15 46h12v5h-12z" fill="#e08831"/><path d="m15 41h12v5h-12z" fill="#e89d43"/><path d="m15 3h46v23h-46z" fill="#76cc7a"/><path d="m32 26h12v25h-12z" fill="#454a6d"/><path d="m23 7c0 2.211-1.789 4-4 4v7c2.211 0 4 1.789 4 4h30c0-2.211 1.789-4 4-4v-7c-2.211 0-4-1.789-4-4z" fill="#f7f4f0"/><path d="m32 3h12v23h-12z" fill="#e89d43"/><path d="m36 7h4v15h-4z" fill="#eae8e5"/><g fill="#0d1030"><path d="m61 2h-46c-.552 0-1 .447-1 1v22h-11c-.552 0-1 .447-1 1v35c0 .553.448 1 1 1h24c.552 0 1-.447 1-1v-9h33c.552 0 1-.447 1-1v-48c0-.553-.448-1-1-1zm-16 6h7.101c.398 1.956 1.943 3.501 3.899 3.899v5.201c-1.956.398-3.501 1.943-3.899 3.899h-7.101zm0 34h15v3h-15zm0-2v-3h15v3zm0-5v-3h15v3zm0-5v-3h15v3zm0-7h8c.552 0 1-.447 1-1 0-1.654 1.346-3 3-3 .552 0 1-.447 1-1v-7c0-.553-.448-1-1-1-1.654 0-3-1.346-3-3 0-.553-.448-1-1-1h-8v-2h15v21h-15zm-2-19v21h-10v-21zm-17 51h-10v-3h10zm5-10h-3v-3h3zm-27 2h10v3h-10zm0-5h10v3h-10zm0-5h10v3h-10zm12 5h10v3h-10zm15-2h-15v-3h15zm0-5h-15v-3h15zm0-5h-15v-3h15zm-17 5h-10v-3h10zm-10 17h10v3h-10zm12-2v-3h10v3zm12-3h3v3h-3zm3-26h-7.101c-.398-1.956-1.943-3.501-3.899-3.899v-5.201c1.956-.398 3.501-1.943 3.899-3.899h7.101zm-15-17h15v2h-8c-.552 0-1 .447-1 1 0 1.654-1.346 3-3 3-.552 0-1 .447-1 1v7c0 .553.448 1 1 1 1.654 0 3 1.346 3 3 0 .553.448 1 1 1h8v2h-15zm-12 23h10v3h-10zm0 30h10v3h-10zm22 3h-10v-3h10zm7-10v-23h10v23zm12 0v-3h15v3z"/><path d="m36 23h4c.552 0 1-.447 1-1v-15c0-.553-.448-1-1-1h-4c-.552 0-1 .447-1 1v15c0 .553.448 1 1 1zm1-15h2v13h-2z"/></g></svg>